<svg width="48" height="48" viewBox="0 0 48 48" fill="none" xmlns="http://www.w3.org/2000/svg">
<g opacity="0.1">
<path opacity="0.1" d="M40 39.2332V39.9524H39.2808" stroke="#20263C" stroke-miterlimit="10"/>
<path opacity="0.1" d="M37.8999 39.9524H10.9335" stroke="#20263C" stroke-miterlimit="10" stroke-dasharray="5.77 5.77"/>
<path opacity="0.1" d="M10.243 39.9524H9.52381V39.2332" stroke="#20263C" stroke-miterlimit="10"/>
<path opacity="0.1" d="M9.52381 37.8498V10.8859" stroke="#20263C" stroke-miterlimit="10" stroke-dasharray="5.77 5.77"/>
<path opacity="0.1" d="M9.52381 10.1954V9.4762H10.243" stroke="#20263C" stroke-miterlimit="10"/>
<path opacity="0.1" d="M11.6264 9.4762H38.5903" stroke="#20263C" stroke-miterlimit="10" stroke-dasharray="5.77 5.77"/>
<path opacity="0.1" d="M39.2808 9.4762H40V10.1954" stroke="#20263C" stroke-miterlimit="10"/>
<path opacity="0.1" d="M40 11.5764V38.5427" stroke="#20263C" stroke-miterlimit="10" stroke-dasharray="5.77 5.77"/>
</g>
<path d="M34.5693 30.753C34.0584 30.187 33.625 29.5555 33.2806 28.8752C32.7365 27.8089 31.9845 26.8622 31.069 26.091C30.1533 25.3198 29.0926 24.7396 27.9494 24.3847C26.9496 24.0756 25.9034 23.9444 24.8583 23.997C25.619 23.9536 26.368 24.1992 26.9552 24.6847C27.5424 25.1701 27.9245 25.8596 28.0249 26.6148C28.2999 28.2468 29.0232 29.7701 30.114 31.0147C31.2047 32.2593 32.6201 33.1761 34.2019 33.6627C36.0106 34.2186 37.9488 34.1887 39.7395 33.5772C37.7448 33.2518 35.9209 32.2556 34.5693 30.753Z" fill="white"/>
<path d="M21.6616 24.0978C21.894 25.1189 22.3029 26.0917 22.8698 26.9723C22.4558 26.3329 22.2965 25.5615 22.4232 24.8104C22.5499 24.0593 22.9536 23.3829 23.5544 22.9147C24.8305 21.8592 25.7886 20.4701 26.3219 18.9022C26.8552 17.3343 26.9428 15.6491 26.575 14.0344C26.1551 12.1872 25.159 10.5212 23.7306 9.27704C24.4418 11.178 24.4826 13.2648 23.8464 15.1922C23.6029 15.9199 23.2643 16.6122 22.8396 17.2512C22.1874 18.2551 21.7432 19.3796 21.533 20.5582C21.3229 21.7367 21.3512 22.9454 21.6162 24.1129L21.6616 24.0978Z" fill="#1852F2"/>
<path d="M26.4693 27.1786C26.1268 27.8596 25.5395 28.3859 24.8253 28.652C24.1111 28.9181 23.3226 28.9043 22.6181 28.6134C21.0655 28.0315 19.3816 27.8929 17.7548 28.2129C16.1279 28.533 14.622 29.2991 13.4055 30.4257C12.0184 31.7161 11.077 33.4137 10.7172 35.2737C12.0079 33.7069 13.7944 32.6272 15.7816 32.2129C16.5282 32.0601 17.2909 32.0009 18.052 32.0367C19.246 32.0985 20.4402 31.9206 21.5643 31.5134C22.6883 31.1061 23.7193 30.4778 24.5965 29.6656C25.3642 28.9526 26.0014 28.111 26.4793 27.1786H26.4693Z" fill="#EF0606"/>
</svg>
